<svg width="38" height="31" viewBox="0 0 38 31" fill="none" xmlns="http://www.w3.org/2000/svg">
<path d="M28.7031 28.0384C28.7031 28.8059 28.9753 29.4606 29.5176 30.003C30.06 30.5459 30.7153 30.8175 31.483 30.8175C32.2496 30.8175 32.9049 30.5459 33.4473 30.003C33.9902 29.4606 34.2618 28.8059 34.2618 28.0384C34.2618 27.271 33.9905 26.6162 33.4473 26.0733C32.9049 25.531 32.2496 25.2593 31.483 25.2593C30.7153 25.2593 30.06 25.531 29.5176 26.0733C28.9753 26.6162 28.7031 27.271 28.7031 28.0384Z" fill="white"/>
<path d="M36.628 3.43857C36.3528 3.16351 36.0274 3.02595 35.6509 3.02595H9.5755C9.56083 2.92473 9.52828 2.74032 9.47763 2.47256C9.42699 2.20465 9.38729 1.99127 9.35832 1.83188C9.32919 1.67317 9.2752 1.48123 9.19543 1.2569C9.11581 1.03241 9.02174 0.854919 8.91322 0.724957C8.80486 0.59431 8.66014 0.482447 8.47915 0.388074C8.29832 0.29431 8.09193 0.247162 7.86045 0.247162H2.30235C1.92577 0.247162 1.60014 0.384957 1.32516 0.659633C1.0501 0.934614 0.912537 1.26047 0.912537 1.63674C0.912537 2.01302 1.0501 2.33872 1.32516 2.6137C1.60037 2.88876 1.92607 3.02617 2.30235 3.02617H6.73102L10.5738 20.8951C10.545 20.9529 10.3966 21.2276 10.1287 21.72C9.86098 22.2124 9.64752 22.6428 9.48843 23.0119C9.32927 23.3814 9.24965 23.6671 9.24965 23.8696C9.24965 24.2459 9.38721 24.5716 9.66212 24.8471C9.93748 25.1213 10.263 25.2593 10.6394 25.2593H12.0289H31.4825H32.8712C33.2474 25.2593 33.5732 25.1214 33.8481 24.8471C34.1234 24.5717 34.2608 24.2459 34.2608 23.8696C34.2608 23.4932 34.1234 23.1675 33.8481 22.8926C33.5733 22.6178 33.2475 22.4799 32.8712 22.4799H12.897C13.2446 21.785 13.4182 21.3223 13.4182 21.0907C13.4182 20.9455 13.4001 20.7862 13.3639 20.6129C13.3276 20.4396 13.2842 20.2475 13.2336 20.0373C13.1829 19.828 13.1505 19.6723 13.136 19.5709L35.8035 16.9221C36.1649 16.8784 36.4619 16.7234 36.6935 16.4552C36.9251 16.1877 37.0406 15.8802 37.0406 15.5326V4.41598C37.0404 4.03971 36.9033 3.71401 36.628 3.43857Z" fill="white"/>
<path d="M9.24954 28.0384C9.24954 28.8059 9.5208 29.4606 10.0637 30.003C10.6067 30.5459 11.2614 30.8175 12.0288 30.8175C12.7957 30.8175 13.4508 30.5459 13.9934 30.003C14.5363 29.4606 14.8079 28.8059 14.8079 28.0384C14.8079 27.271 14.5365 26.6162 13.9934 26.0733C13.4507 25.531 12.7957 25.2593 12.0288 25.2593C11.2615 25.2593 10.6064 25.531 10.0637 26.0733C9.5211 26.6162 9.24954 27.271 9.24954 28.0384Z" fill="white"/>
</svg>
