<svg width="146" height="43" viewBox="0 0 146 43" fill="none" xmlns="http://www.w3.org/2000/svg">
<path d="M19.5618 41.8802V33.8406H18.2146V39.4065L14.2847 33.8406H12.9055V41.8802H14.2528V36.1305L18.2572 41.8802H19.5618ZM32.5761 41.8802L29.5568 33.8406H27.8741L24.8602 41.8802H26.3884L26.9529 40.3258H30.478L31.0425 41.8802H32.5761ZM30.1 39.0833H27.3363L28.7155 35.2502L30.1 39.0833ZM39.2057 41.8802V33.8406H37.8585V41.8802H39.2057ZM49.9409 41.8802V40.6378H46.5542V33.8406H45.207V41.8802H49.9409ZM63.4877 41.8802C62.9339 41.3231 62.4493 40.8049 61.9861 40.3035C62.4387 39.6628 62.7848 38.9496 63.0457 38.2978L62.0713 37.8298C61.9328 38.2978 61.6772 38.9385 61.3098 39.5179C61.0542 39.2282 60.8039 38.9162 60.5483 38.5875C60.33 38.3256 60.0531 37.9746 59.7868 37.5902C60.7453 37.1055 61.6985 36.5762 61.6985 35.3616C61.6985 34.3142 60.8465 33.7236 59.8135 33.7236C58.6153 33.7236 57.7261 34.5426 57.7261 35.6123C57.7261 36.1695 57.9444 36.7823 58.2692 37.384C57.3799 37.852 56.5972 38.4928 56.5972 39.7352C56.5972 41.2506 57.7048 42.0251 59.0626 42.0251C59.9359 42.0251 60.6388 41.6852 61.2139 41.1782C61.4695 41.4568 61.7092 41.6963 61.8955 41.8802H63.4877ZM59.2224 41.011C58.5088 41.011 57.8752 40.504 57.8752 39.6238C57.8752 38.9496 58.2426 38.5318 58.7538 38.1808C59.0147 38.5763 59.3182 38.9775 59.6058 39.3229C59.7975 39.5903 60.1543 40.0138 60.5483 40.4428C60.1543 40.7826 59.7176 41.011 59.2224 41.011ZM58.9348 35.6513C58.9348 35.0607 59.3502 34.6485 59.8561 34.6485C60.2927 34.6485 60.6282 34.9382 60.6282 35.434C60.6282 36.1082 60.0424 36.4926 59.3182 36.8547C59.0839 36.4313 58.9348 36.0135 58.9348 35.6513ZM74.3241 41.8802C75.7725 41.8802 76.5553 40.9498 76.5553 39.6962C76.5553 38.7212 75.9003 37.8688 75.0696 37.735C75.7831 37.579 76.4062 36.8882 76.4062 35.8909C76.4062 34.7599 75.634 33.8406 74.2176 33.8406H70.4422V41.8802H74.3241ZM73.9566 37.1556H71.7894V35.083H73.9566C74.6329 35.083 75.027 35.5287 75.027 36.1193C75.027 36.7322 74.6329 37.1556 73.9566 37.1556ZM74.0099 40.6378H71.7894V38.398H74.0099C74.7714 38.398 75.1761 38.9162 75.1761 39.5179C75.1761 40.2143 74.7394 40.6378 74.0099 40.6378ZM87.6366 41.8802V40.6378H83.7227V38.398H87.5567V37.1556H83.7227V35.083H87.6366V33.8406H82.3755V41.8802H87.6366ZM100.395 41.8802L97.3813 33.8406H95.6986L92.6794 41.8802H94.2129L94.7774 40.3258H98.3026L98.867 41.8802H100.395ZM97.9191 39.0833H95.1555L96.54 35.2502L97.9191 39.0833ZM108.665 42.0251C110.901 42.0251 111.993 40.6879 111.993 38.6989V33.8406H110.625V38.6599C110.625 39.9413 109.943 40.7715 108.665 40.7715C107.387 40.7715 106.705 39.9413 106.705 38.6599V33.8406H105.337V38.6989C105.337 40.6879 106.444 42.0251 108.665 42.0251ZM121.264 41.8802V35.083H123.591V33.8406H117.59V35.083H119.917V41.8802H121.264ZM132.723 41.8802V38.5429L135.695 33.8406H134.15L132.047 37.2782L129.938 33.8406H128.394L131.376 38.5429V41.8802H132.723Z" fill="#2B2A29"/>
<path d="M23.1881 25.1157L14.1303 0.974609H9.07687L0.019043 25.1157H4.61452L6.31319 20.4468H16.894L18.5926 25.1157H23.1881ZM15.7544 16.7195H7.45274L11.6009 5.20891L15.7544 16.7195ZM55.005 25.1157V0.974609H49.2966L43.0344 17.5497L36.7402 0.974609H31.0372V25.1157H35.0788V6.47363L42.1717 25.1157H43.9024L50.958 6.47363V25.1157H55.005ZM86.0551 25.1157L76.9919 0.974609H71.9438L62.8807 25.1157H67.4815L69.1748 20.4468H79.7609L81.4543 25.1157H86.0551ZM78.6214 16.7195H70.3197L74.4679 5.20891L78.6214 16.7195ZM107.84 25.1157V21.3884H97.6689V0.974609H93.6219V25.1157H107.84ZM120.801 25.1157V14.6525H132.319V10.9252H120.801V4.70191H132.564V0.974609H116.754V25.1157H120.801ZM145.626 25.1157V0.974609H141.579V25.1157H145.626Z" fill="#2B2A29"/>
</svg>
